<svg xmlns="http://www.w3.org/2000/svg" xmlns:xlink="http://www.w3.org/1999/xlink" width="700" zoomAndPan="magnify" viewBox="0 0 525 525.000007" height="700" preserveAspectRatio="xMidYMid meet" version="1.0"><defs><clipPath id="4241694cf5"><path d="M 472 322 L 524.5 322 L 524.5 376 L 472 376 Z M 472 322 " clip-rule="nonzero"/></clipPath><clipPath id="28ed8cb0bb"><path d="M 0.5 0 L 524.5 0 L 524.5 506 L 0.5 506 Z M 0.5 0 " clip-rule="nonzero"/></clipPath></defs><path fill="#f6bb92" d="M 201.566406 279.1875 L 236.480469 279.1875 L 236.480469 383.863281 L 210.296875 383.863281 L 201.566406 279.1875 " fill-opacity="1" fill-rule="nonzero"/><path fill="#0296e5" d="M 236.480469 209.402344 L 236.480469 392.585938 L 376.125 392.585938 L 376.125 209.402344 L 236.480469 209.402344 " fill-opacity="1" fill-rule="nonzero"/><path fill="#fdc9a6" d="M 376.125 279.1875 L 376.125 340.25 L 239.753906 340.25 C 223.484375 340.25 210.296875 353.429688 210.296875 369.6875 L 210.296875 392.585938 L 395.765625 392.585938 C 413.839844 392.585938 428.492188 377.9375 428.492188 359.875 L 428.492188 279.1875 L 376.125 279.1875 " fill-opacity="1" fill-rule="nonzero"/><g clip-path="url(#4241694cf5)"><path fill="#e82f3e" d="M 498.316406 375.140625 L 480.863281 375.140625 C 476.042969 375.140625 472.132812 371.234375 472.132812 366.417969 C 472.132812 361.601562 476.042969 357.695312 480.863281 357.695312 L 498.316406 357.695312 C 503.128906 357.695312 507.046875 353.78125 507.046875 348.972656 C 507.046875 344.164062 503.128906 340.25 498.316406 340.25 L 480.863281 340.25 C 476.042969 340.25 472.132812 336.34375 472.132812 331.527344 C 472.132812 326.707031 476.042969 322.800781 480.863281 322.800781 L 498.316406 322.800781 C 512.753906 322.800781 524.5 334.542969 524.5 348.972656 C 524.5 363.402344 512.753906 375.140625 498.316406 375.140625 " fill-opacity="1" fill-rule="nonzero"/></g><path fill="#fdc9a6" d="M 280.121094 165.789062 L 332.488281 165.789062 L 332.488281 209.402344 C 318.027344 223.855469 294.578125 223.855469 280.121094 209.402344 L 280.121094 165.789062 " fill-opacity="1" fill-rule="nonzero"/><path fill="#fdc9a6" d="M 332.488281 165.789062 L 332.488281 193.675781 C 324.785156 198.140625 315.835938 200.679688 306.304688 200.679688 C 296.769531 200.679688 287.820312 198.140625 280.121094 193.675781 L 280.121094 165.789062 L 332.488281 165.789062 " fill-opacity="1" fill-rule="nonzero"/><path fill="#f6bb92" d="M 332.488281 165.789062 L 332.488281 193.675781 C 324.785156 198.140625 315.835938 200.679688 306.304688 200.679688 C 296.769531 200.679688 287.820312 198.140625 280.121094 193.675781 L 280.121094 165.789062 L 332.488281 165.789062 " fill-opacity="1" fill-rule="nonzero"/><path fill="#0296e5" d="M 236.480469 209.402344 L 216.84375 209.402344 C 198.769531 209.402344 184.113281 224.050781 184.113281 242.113281 L 184.113281 279.1875 L 236.480469 279.1875 L 236.480469 209.402344 " fill-opacity="1" fill-rule="nonzero"/><path fill="#683b0d" d="M 376.125 78.558594 L 358.671875 78.558594 L 332.488281 61.109375 L 253.9375 61.109375 C 238.300781 55.902344 227.753906 41.273438 227.753906 24.804688 L 227.753906 8.773438 L 323.757812 8.773438 C 352.683594 8.773438 376.125 32.203125 376.125 61.109375 L 376.125 78.558594 " fill-opacity="1" fill-rule="nonzero"/><path fill="#fbb540" d="M 515.773438 427.480469 L 9.554688 427.480469 L 9.554688 392.585938 L 515.773438 392.585938 L 515.773438 427.480469 " fill-opacity="1" fill-rule="nonzero"/><path fill="#c38325" d="M 27.011719 427.480469 L 61.921875 427.480469 L 61.921875 497.265625 L 27.011719 497.265625 L 27.011719 427.480469 " fill-opacity="1" fill-rule="nonzero"/><path fill="#c38325" d="M 463.40625 427.480469 L 498.316406 427.480469 L 498.316406 497.265625 L 463.40625 497.265625 L 463.40625 427.480469 " fill-opacity="1" fill-rule="nonzero"/><path fill="#ea9d2d" d="M 463.40625 497.265625 L 61.921875 497.265625 L 61.921875 427.480469 L 463.40625 427.480469 L 463.40625 497.265625 " fill-opacity="1" fill-rule="nonzero"/><path fill="#c38325" d="M 515.773438 427.480469 L 445.949219 427.480469 L 445.949219 392.585938 L 515.773438 392.585938 L 515.773438 427.480469 " fill-opacity="1" fill-rule="nonzero"/><path fill="#fdc9a6" d="M 306.304688 183.234375 C 277.378906 183.234375 253.9375 159.804688 253.9375 130.894531 L 253.9375 61.109375 L 332.488281 61.109375 L 358.671875 78.558594 L 358.671875 130.894531 C 358.671875 159.804688 335.226562 183.234375 306.304688 183.234375 " fill-opacity="1" fill-rule="nonzero"/><path fill="#683b0d" d="M 269.210938 104.726562 C 269.210938 98.703125 274.09375 93.820312 280.121094 93.820312 C 286.144531 93.820312 291.03125 98.703125 291.03125 104.726562 C 291.03125 110.75 286.144531 115.628906 280.121094 115.628906 C 274.09375 115.628906 269.210938 110.75 269.210938 104.726562 " fill-opacity="1" fill-rule="nonzero"/><path fill="#683b0d" d="M 321.578125 104.726562 C 321.578125 98.703125 326.460938 93.820312 332.488281 93.820312 C 338.511719 93.820312 343.398438 98.703125 343.398438 104.726562 C 343.398438 110.75 338.511719 115.628906 332.488281 115.628906 C 326.460938 115.628906 321.578125 110.75 321.578125 104.726562 " fill-opacity="1" fill-rule="nonzero"/><path fill="#683b0d" d="M 306.304688 139.617188 C 304.070312 139.617188 301.835938 138.765625 300.132812 137.0625 L 291.40625 128.339844 C 288.746094 125.6875 288.089844 121.632812 289.769531 118.269531 L 298.496094 100.824219 C 300.652344 96.519531 305.894531 94.773438 310.207031 96.921875 C 314.519531 99.078125 316.265625 104.316406 314.109375 108.628906 L 308.195312 120.453125 L 312.472656 124.726562 C 315.882812 128.136719 315.882812 133.65625 312.472656 137.0625 C 310.769531 138.765625 308.535156 139.617188 306.304688 139.617188 " fill-opacity="1" fill-rule="nonzero"/><path fill="#683b0d" d="M 306.304688 161.15625 C 298.96875 161.15625 291.628906 159.484375 284.945312 156.144531 C 280.632812 153.988281 278.882812 148.75 281.039062 144.441406 C 283.195312 140.132812 288.4375 138.382812 292.75 140.539062 C 301.234375 144.78125 311.371094 144.78125 319.855469 140.539062 C 324.167969 138.386719 329.410156 140.132812 331.566406 144.441406 C 333.722656 148.75 331.976562 153.988281 327.664062 156.144531 C 320.976562 159.484375 313.636719 161.15625 306.304688 161.15625 " fill-opacity="1" fill-rule="nonzero"/><path fill="#fdc9a6" d="M 253.9375 122.171875 L 240.84375 122.171875 C 228.792969 122.171875 219.023438 112.410156 219.023438 100.363281 C 219.023438 88.320312 228.792969 78.558594 240.84375 78.558594 L 253.9375 78.558594 L 253.9375 122.171875 " fill-opacity="1" fill-rule="nonzero"/><path fill="#fdc9a6" d="M 358.671875 122.171875 L 371.761719 122.171875 C 383.816406 122.171875 393.582031 112.410156 393.582031 100.363281 C 393.582031 88.320312 383.816406 78.558594 371.761719 78.558594 L 358.671875 78.558594 L 358.671875 122.171875 " fill-opacity="1" fill-rule="nonzero"/><path fill="#0296e5" d="M 376.125 209.402344 L 395.765625 209.402344 C 413.839844 209.402344 428.492188 224.050781 428.492188 242.113281 L 428.492188 279.1875 L 376.125 279.1875 L 376.125 209.402344 " fill-opacity="1" fill-rule="nonzero"/><path fill="#cbcbcb" d="M 227.753906 392.585938 L 35.738281 392.585938 L 9.554688 253.019531 L 201.566406 253.019531 L 227.753906 392.585938 " fill-opacity="1" fill-rule="nonzero"/><path fill="#c4f8ff" d="M 96.832031 322.800781 C 96.832031 313.167969 104.648438 305.355469 114.289062 305.355469 C 123.929688 305.355469 131.746094 313.167969 131.746094 322.800781 C 131.746094 332.4375 123.929688 340.25 114.289062 340.25 C 104.648438 340.25 96.832031 332.4375 96.832031 322.800781 " fill-opacity="1" fill-rule="nonzero"/><path fill="#e82f3e" d="M 480.863281 392.585938 L 419.765625 392.585938 L 419.765625 322.800781 L 480.863281 322.800781 L 480.863281 392.585938 " fill-opacity="1" fill-rule="nonzero"/><path fill="#d18d28" d="M 463.40625 444.925781 L 61.921875 444.925781 L 61.921875 427.480469 L 463.40625 427.480469 L 463.40625 444.925781 " fill-opacity="1" fill-rule="nonzero"/><path fill="#97661d" d="M 498.316406 444.925781 L 463.40625 444.925781 L 463.40625 427.480469 L 498.316406 427.480469 L 498.316406 444.925781 " fill-opacity="1" fill-rule="nonzero"/><path fill="#97661d" d="M 27.011719 427.480469 L 61.921875 427.480469 L 61.921875 444.925781 L 27.011719 444.925781 L 27.011719 427.480469 " fill-opacity="1" fill-rule="nonzero"/><path fill="#000000" d="M 291.03125 104.726562 C 291.03125 98.703125 286.144531 93.820312 280.121094 93.820312 C 274.09375 93.820312 269.210938 98.703125 269.210938 104.726562 C 269.210938 110.75 274.09375 115.628906 280.121094 115.628906 C 286.144531 115.628906 291.03125 110.75 291.03125 104.726562 " fill-opacity="1" fill-rule="nonzero"/><path fill="#000000" d="M 332.488281 115.628906 C 338.511719 115.628906 343.398438 110.75 343.398438 104.726562 C 343.398438 98.703125 338.511719 93.820312 332.488281 93.820312 C 326.460938 93.820312 321.578125 98.703125 321.578125 104.726562 C 321.578125 110.75 326.460938 115.628906 332.488281 115.628906 " fill-opacity="1" fill-rule="nonzero"/><path fill="#000000" d="M 291.40625 128.339844 L 300.132812 137.0625 C 301.835938 138.765625 304.070312 139.617188 306.304688 139.617188 C 308.535156 139.617188 310.769531 138.765625 312.472656 137.0625 C 315.882812 133.65625 315.882812 128.136719 312.472656 124.726562 L 308.195312 120.453125 L 314.109375 108.628906 C 316.265625 104.316406 314.519531 99.078125 310.207031 96.921875 C 305.894531 94.773438 300.652344 96.519531 298.496094 100.824219 L 289.769531 118.269531 C 288.089844 121.632812 288.746094 125.6875 291.40625 128.339844 " fill-opacity="1" fill-rule="nonzero"/><path fill="#000000" d="M 292.75 140.539062 C 288.4375 138.382812 283.195312 140.132812 281.039062 144.441406 C 278.882812 148.75 280.632812 153.988281 284.945312 156.144531 C 291.628906 159.484375 298.96875 161.15625 306.304688 161.15625 C 313.636719 161.15625 320.976562 159.484375 327.664062 156.144531 C 331.976562 153.988281 333.722656 148.75 331.566406 144.441406 C 329.410156 140.132812 324.167969 138.386719 319.855469 140.539062 C 311.371094 144.78125 301.234375 144.78125 292.75 140.539062 " fill-opacity="1" fill-rule="nonzero"/><g clip-path="url(#28ed8cb0bb)"><path fill="#000000" d="M 507.046875 401.308594 L 507.046875 418.757812 L 454.675781 418.757812 L 454.675781 401.308594 Z M 489.589844 488.539062 L 472.132812 488.539062 L 472.132812 436.203125 L 489.589844 436.203125 Z M 454.675781 488.539062 L 70.648438 488.539062 L 70.648438 436.203125 L 454.675781 436.203125 Z M 18.28125 418.757812 L 18.28125 401.308594 L 437.222656 401.308594 L 437.222656 418.757812 Z M 53.195312 488.539062 L 35.738281 488.539062 L 35.738281 436.203125 L 53.195312 436.203125 Z M 20.070312 261.742188 L 194.324219 261.742188 L 217.234375 383.863281 L 42.984375 383.863281 Z M 227.753906 287.910156 L 227.753906 331.527344 L 225.179688 331.527344 L 216.996094 287.910156 Z M 192.839844 242.113281 C 192.839844 228.886719 203.605469 218.125 216.84375 218.125 L 227.753906 218.125 L 227.753906 270.464844 L 213.722656 270.464844 L 210.148438 251.414062 C 209.371094 247.285156 205.769531 244.296875 201.566406 244.296875 L 192.839844 244.296875 Z M 236.480469 348.972656 L 376.125 348.972656 C 380.945312 348.972656 384.855469 345.066406 384.855469 340.25 L 384.855469 287.910156 L 419.765625 287.910156 L 419.765625 314.078125 C 414.945312 314.078125 411.039062 317.984375 411.039062 322.800781 L 411.039062 378.378906 C 406.746094 381.929688 401.40625 383.863281 395.765625 383.863281 L 234.996094 383.863281 L 228.449219 348.972656 Z M 245.207031 218.125 L 276.378906 218.125 C 276.496094 218.125 276.609375 218.113281 276.722656 218.109375 C 285.230469 225.324219 295.765625 228.945312 306.304688 228.945312 C 316.832031 228.945312 327.359375 225.328125 335.863281 218.125 L 367.398438 218.125 L 367.398438 331.527344 L 245.207031 331.527344 Z M 323.757812 189.40625 L 323.757812 205.5 C 313.546875 213.507812 299.058594 213.507812 288.847656 205.5 L 288.847656 189.40625 C 294.382812 191.058594 300.238281 191.957031 306.304688 191.957031 C 312.367188 191.957031 318.222656 191.058594 323.757812 189.40625 Z M 262.664062 130.894531 L 262.664062 69.832031 L 329.84375 69.832031 L 349.941406 83.226562 L 349.941406 130.894531 C 349.941406 154.941406 330.363281 174.511719 306.304688 174.511719 C 282.242188 174.511719 262.664062 154.941406 262.664062 130.894531 Z M 236.480469 24.804688 L 236.480469 17.496094 L 323.757812 17.496094 C 347.820312 17.496094 367.398438 37.0625 367.398438 61.109375 L 367.398438 69.832031 L 361.3125 69.832031 L 337.328125 53.851562 C 335.894531 52.898438 334.207031 52.386719 332.488281 52.386719 L 255.445312 52.386719 C 244.046875 48.015625 236.480469 37.097656 236.480469 24.804688 Z M 384.855469 100.363281 C 384.855469 107.578125 378.980469 113.449219 371.761719 113.449219 L 367.398438 113.449219 L 367.398438 87.28125 L 371.761719 87.28125 C 378.980469 87.28125 384.855469 93.148438 384.855469 100.363281 Z M 384.855469 218.125 L 395.765625 218.125 C 409 218.125 419.765625 228.886719 419.765625 242.113281 L 419.765625 270.464844 L 384.855469 270.464844 Z M 428.492188 331.527344 L 472.132812 331.527344 L 472.132812 383.863281 L 428.492188 383.863281 Z M 245.207031 113.449219 L 240.84375 113.449219 C 233.625 113.449219 227.753906 107.578125 227.753906 100.363281 C 227.753906 93.148438 233.625 87.28125 240.84375 87.28125 L 245.207031 87.28125 Z M 489.589844 340.25 L 498.316406 340.25 C 503.128906 340.25 507.046875 344.164062 507.046875 348.972656 C 507.046875 353.78125 503.128906 357.695312 498.316406 357.695312 L 489.589844 357.695312 Z M 498.316406 375.140625 C 512.753906 375.140625 524.5 363.402344 524.5 348.972656 C 524.5 334.542969 512.753906 322.800781 498.316406 322.800781 L 489.589844 322.800781 C 489.589844 317.984375 485.679688 314.078125 480.863281 314.078125 L 437.222656 314.078125 L 437.222656 242.113281 C 437.222656 219.265625 418.625 200.679688 395.765625 200.679688 L 341.214844 200.679688 L 341.214844 180.964844 C 357.027344 169.914062 367.398438 151.59375 367.398438 130.894531 L 371.761719 130.894531 C 388.605469 130.894531 402.308594 117.195312 402.308594 100.363281 C 402.308594 88.207031 395.164062 77.695312 384.855469 72.785156 L 384.855469 61.109375 C 384.855469 27.441406 357.449219 0.0507812 323.757812 0.0507812 L 227.753906 0.0507812 C 222.933594 0.0507812 219.023438 3.953125 219.023438 8.773438 L 219.023438 24.804688 C 219.023438 42.886719 229.320312 59.097656 245.207031 66.925781 L 245.207031 69.832031 L 240.84375 69.832031 C 224 69.832031 210.296875 83.53125 210.296875 100.363281 C 210.296875 117.195312 224 130.894531 240.84375 130.894531 L 245.207031 130.894531 C 245.207031 151.59375 255.582031 169.914062 271.390625 180.964844 L 271.390625 200.679688 L 216.84375 200.679688 C 193.984375 200.679688 175.382812 219.265625 175.382812 242.113281 L 175.382812 244.296875 L 9.554688 244.296875 C 6.957031 244.296875 4.496094 245.449219 2.835938 247.445312 C 1.179688 249.445312 0.5 252.078125 0.976562 254.625 L 25.21875 383.863281 L 9.554688 383.863281 C 4.734375 383.863281 0.828125 387.769531 0.828125 392.585938 L 0.828125 427.480469 C 0.828125 432.296875 4.734375 436.203125 9.554688 436.203125 L 18.28125 436.203125 L 18.28125 497.265625 C 18.28125 502.082031 22.191406 505.988281 27.011719 505.988281 L 498.316406 505.988281 C 503.136719 505.988281 507.046875 502.082031 507.046875 497.265625 L 507.046875 436.203125 L 515.773438 436.203125 C 520.59375 436.203125 524.5 432.296875 524.5 427.480469 L 524.5 392.585938 C 524.5 387.769531 520.59375 383.863281 515.773438 383.863281 L 489.589844 383.863281 L 489.589844 375.140625 L 498.316406 375.140625 " fill-opacity="1" fill-rule="nonzero"/></g><path fill="#000000" d="M 114.289062 314.078125 C 119.101562 314.078125 123.015625 317.992188 123.015625 322.800781 C 123.015625 327.613281 119.101562 331.527344 114.289062 331.527344 C 109.476562 331.527344 105.5625 327.613281 105.5625 322.800781 C 105.5625 317.992188 109.476562 314.078125 114.289062 314.078125 Z M 114.289062 348.972656 C 128.726562 348.972656 140.472656 337.234375 140.472656 322.800781 C 140.472656 308.371094 128.726562 296.632812 114.289062 296.632812 C 99.851562 296.632812 88.105469 308.371094 88.105469 322.800781 C 88.105469 337.234375 99.851562 348.972656 114.289062 348.972656 " fill-opacity="1" fill-rule="nonzero"/></svg>