<svg xmlns="http://www.w3.org/2000/svg" xmlns:xlink="http://www.w3.org/1999/xlink" width="400" zoomAndPan="magnify" viewBox="0 0 300 149.999998" height="200" preserveAspectRatio="xMidYMid meet" version="1.0"><defs><g/><clipPath id="a1a5f5fa37"><path d="M 7.808594 10.128906 L 292.058594 10.128906 L 292.058594 56 L 7.808594 56 Z M 7.808594 10.128906 " clip-rule="nonzero"/></clipPath><clipPath id="b7365efd65"><path d="M 7.808594 94 L 292.058594 94 L 292.058594 139.878906 L 7.808594 139.878906 Z M 7.808594 94 " clip-rule="nonzero"/></clipPath></defs><g clip-path="url(#a1a5f5fa37)"><path fill="#2b2929" d="M 10.429688 56 L 10.429688 12.09375 L 289.4375 12.09375 L 289.4375 56 L 292.058594 56 L 292.058594 10.128906 L 7.8125 10.128906 L 7.8125 56 L 10.429688 56 " fill-opacity="1" fill-rule="nonzero"/></g><g clip-path="url(#b7365efd65)"><path fill="#2b2929" d="M 289.4375 94.007812 L 289.4375 137.914062 L 10.429688 137.914062 L 10.429688 94.007812 L 7.8125 94.007812 L 7.8125 139.878906 L 292.058594 139.878906 L 292.058594 94.007812 L 289.4375 94.007812 " fill-opacity="1" fill-rule="nonzero"/></g><g fill="#000000" fill-opacity="1"><g transform="translate(78.35588, 54.157526)"><g><path d="M 2.90625 -25.78125 L 5.421875 -25.78125 L 13.546875 -9.796875 L 21.640625 -25.78125 L 24.203125 -25.78125 L 24.203125 0 L 21.328125 0 L 21.328125 -19.4375 L 14.796875 -6.390625 L 12.3125 -6.390625 L 5.765625 -19.359375 L 5.765625 0 L 2.90625 0 Z M 2.90625 -25.78125 "/></g></g></g><g fill="#000000" fill-opacity="1"><g transform="translate(113.193765, 54.157526)"><g><path d="M 0.578125 0 L 9.375 -25.78125 L 11.6875 -25.78125 L 20.484375 0 L 17.46875 0 L 15.40625 -6.390625 L 5.65625 -6.390625 L 3.59375 0 Z M 14.5625 -9.09375 L 10.53125 -21.765625 L 6.5 -9.09375 Z M 14.5625 -9.09375 "/></g></g></g><g fill="#000000" fill-opacity="1"><g transform="translate(141.993369, 54.157526)"><g><path d="M 5.765625 -23.078125 L 5.765625 -12.625 L 8.046875 -12.625 C 9.265625 -12.625 10.148438 -12.640625 10.703125 -12.671875 C 11.253906 -12.710938 11.859375 -12.828125 12.515625 -13.015625 C 13.179688 -13.210938 13.742188 -13.535156 14.203125 -13.984375 C 15.210938 -14.910156 15.71875 -16.195312 15.71875 -17.84375 C 15.71875 -19.5 15.210938 -20.789062 14.203125 -21.71875 C 13.535156 -22.34375 12.78125 -22.722656 11.9375 -22.859375 C 11.101562 -23.003906 9.804688 -23.078125 8.046875 -23.078125 Z M 2.90625 -25.78125 L 8.046875 -25.78125 C 9.390625 -25.78125 10.414062 -25.753906 11.125 -25.703125 C 11.84375 -25.648438 12.691406 -25.460938 13.671875 -25.140625 C 14.648438 -24.816406 15.5 -24.320312 16.21875 -23.65625 C 17.789062 -22.15625 18.578125 -20.21875 18.578125 -17.84375 C 18.578125 -16.21875 18.191406 -14.785156 17.421875 -13.546875 C 16.648438 -12.304688 15.644531 -11.390625 14.40625 -10.796875 L 18.96875 0 L 15.875 0 L 11.6875 -10.03125 C 11.125 -9.945312 9.910156 -9.90625 8.046875 -9.90625 L 5.765625 -9.90625 L 5.765625 0.03125 L 2.90625 0.03125 Z M 2.90625 -25.78125 "/></g></g></g><g fill="#000000" fill-opacity="1"><g transform="translate(170.638136, 54.157526)"><g><path d="M 11.234375 -26.015625 C 13.960938 -26.015625 16.21875 -25.148438 18 -23.421875 L 16.265625 -21.296875 C 14.972656 -22.640625 13.296875 -23.3125 11.234375 -23.3125 C 9.265625 -23.3125 7.78125 -22.664062 6.78125 -21.375 C 6.132812 -20.550781 5.738281 -19.582031 5.59375 -18.46875 C 5.445312 -17.351562 5.375 -15.492188 5.375 -12.890625 C 5.375 -10.304688 5.445312 -8.457031 5.59375 -7.34375 C 5.738281 -6.238281 6.117188 -5.273438 6.734375 -4.453125 C 7.742188 -3.140625 9.242188 -2.484375 11.234375 -2.484375 C 13.472656 -2.484375 15.253906 -3.242188 16.578125 -4.765625 L 18.546875 -2.828125 C 17.722656 -1.921875 16.664062 -1.179688 15.375 -0.609375 C 14.082031 -0.046875 12.703125 0.234375 11.234375 0.234375 C 8.265625 0.234375 5.988281 -0.796875 4.40625 -2.859375 C 3.53125 -3.992188 2.992188 -5.234375 2.796875 -6.578125 C 2.609375 -7.921875 2.515625 -10.023438 2.515625 -12.890625 C 2.515625 -14.859375 2.539062 -16.285156 2.59375 -17.171875 C 2.644531 -18.054688 2.8125 -19.046875 3.09375 -20.140625 C 3.375 -21.242188 3.828125 -22.179688 4.453125 -22.953125 C 6.023438 -24.992188 8.285156 -26.015625 11.234375 -26.015625 Z M 11.234375 -26.015625 "/></g></g></g><g fill="#000000" fill-opacity="1"><g transform="translate(199.050667, 54.157526)"><g><path d="M 5.375 -12.890625 C 5.375 -11.265625 5.382812 -10.082031 5.40625 -9.34375 C 5.4375 -8.613281 5.53125 -7.832031 5.6875 -7 C 5.84375 -6.175781 6.078125 -5.492188 6.390625 -4.953125 C 7.367188 -3.304688 9.003906 -2.484375 11.296875 -2.484375 C 13.597656 -2.484375 15.238281 -3.304688 16.21875 -4.953125 C 16.6875 -5.703125 16.972656 -6.625 17.078125 -7.71875 C 17.179688 -8.820312 17.234375 -10.546875 17.234375 -12.890625 C 17.234375 -14.515625 17.21875 -15.695312 17.1875 -16.4375 C 17.164062 -17.175781 17.078125 -17.957031 16.921875 -18.78125 C 16.765625 -19.601562 16.53125 -20.285156 16.21875 -20.828125 C 15.238281 -22.484375 13.597656 -23.3125 11.296875 -23.3125 C 9.003906 -23.3125 7.367188 -22.484375 6.390625 -20.828125 C 5.921875 -20.078125 5.632812 -19.15625 5.53125 -18.0625 C 5.425781 -16.96875 5.375 -15.242188 5.375 -12.890625 Z M 2.515625 -12.890625 C 2.515625 -14.773438 2.535156 -16.128906 2.578125 -16.953125 C 2.617188 -17.785156 2.738281 -18.6875 2.9375 -19.65625 C 3.144531 -20.625 3.46875 -21.46875 3.90625 -22.1875 C 4.632812 -23.375 5.648438 -24.304688 6.953125 -24.984375 C 8.253906 -25.671875 9.703125 -26.015625 11.296875 -26.015625 C 12.898438 -26.015625 14.351562 -25.671875 15.65625 -24.984375 C 16.957031 -24.304688 17.972656 -23.375 18.703125 -22.1875 C 19.347656 -21.15625 19.738281 -20.019531 19.875 -18.78125 C 20.019531 -17.539062 20.09375 -15.578125 20.09375 -12.890625 C 20.09375 -11.003906 20.070312 -9.648438 20.03125 -8.828125 C 20 -8.003906 19.878906 -7.109375 19.671875 -6.140625 C 19.460938 -5.171875 19.140625 -4.320312 18.703125 -3.59375 C 17.972656 -2.40625 16.957031 -1.46875 15.65625 -0.78125 C 14.351562 -0.101562 12.898438 0.234375 11.296875 0.234375 C 9.703125 0.234375 8.253906 -0.101562 6.953125 -0.78125 C 5.648438 -1.46875 4.632812 -2.40625 3.90625 -3.59375 C 3.257812 -4.632812 2.863281 -5.769531 2.71875 -7 C 2.582031 -8.238281 2.515625 -10.203125 2.515625 -12.890625 Z M 2.515625 -12.890625 "/></g></g></g><g fill="#000000" fill-opacity="1"><g transform="translate(50.676194, 99.907524)"><g><path d="M 0.578125 0 L 9.375 -25.78125 L 11.6875 -25.78125 L 20.484375 0 L 17.46875 0 L 15.40625 -6.390625 L 5.65625 -6.390625 L 3.59375 0 Z M 14.5625 -9.09375 L 10.53125 -21.765625 L 6.5 -9.09375 Z M 14.5625 -9.09375 "/></g></g></g><g fill="#000000" fill-opacity="1"><g transform="translate(79.475799, 99.907524)"><g><path d="M 2.90625 -25.78125 L 5.765625 -25.78125 L 5.765625 -2.703125 L 16.453125 -2.703125 L 16.453125 0 L 2.90625 0 Z M 2.90625 -25.78125 "/></g></g></g><g fill="#000000" fill-opacity="1"><g transform="translate(105.798158, 99.907524)"><g><path d="M 2.90625 -25.78125 L 5.421875 -25.78125 L 13.546875 -9.796875 L 21.640625 -25.78125 L 24.203125 -25.78125 L 24.203125 0 L 21.328125 0 L 21.328125 -19.4375 L 14.796875 -6.390625 L 12.3125 -6.390625 L 5.765625 -19.359375 L 5.765625 0 L 2.90625 0 Z M 2.90625 -25.78125 "/></g></g></g><g fill="#000000" fill-opacity="1"><g transform="translate(140.636043, 99.907524)"><g><path d="M 0.578125 0 L 9.375 -25.78125 L 11.6875 -25.78125 L 20.484375 0 L 17.46875 0 L 15.40625 -6.390625 L 5.65625 -6.390625 L 3.59375 0 Z M 14.5625 -9.09375 L 10.53125 -21.765625 L 6.5 -9.09375 Z M 14.5625 -9.09375 "/></g></g></g><g fill="#000000" fill-opacity="1"><g transform="translate(169.435647, 99.907524)"><g><path d="M 2.90625 -25.78125 L 5.421875 -25.78125 L 17.078125 -5.6875 L 17.078125 -25.78125 L 19.9375 -25.78125 L 19.9375 0 L 17.421875 0 L 5.765625 -20.09375 L 5.765625 0 L 2.90625 0 Z M 2.90625 -25.78125 "/></g></g></g><g fill="#000000" fill-opacity="1"><g transform="translate(200.01577, 99.907524)"><g><path d="M 2.703125 -25.78125 L 17.8125 -25.78125 L 17.8125 -23.84375 L 5.6875 -2.703125 L 18.203125 -2.703125 L 18.203125 0 L 2.328125 0 L 2.328125 -1.9375 L 14.40625 -23.078125 L 2.703125 -23.078125 Z M 2.703125 -25.78125 "/></g></g></g><g fill="#000000" fill-opacity="1"><g transform="translate(228.273474, 99.907524)"><g><path d="M 0.578125 0 L 9.375 -25.78125 L 11.6875 -25.78125 L 20.484375 0 L 17.46875 0 L 15.40625 -6.390625 L 5.65625 -6.390625 L 3.59375 0 Z M 14.5625 -9.09375 L 10.53125 -21.765625 L 6.5 -9.09375 Z M 14.5625 -9.09375 "/></g></g></g><g fill="#000000" fill-opacity="1"><g transform="translate(29.922273, 128.842466)"><g><path d="M 4.703125 -8.15625 C 5.253906 -8.15625 5.785156 -8.046875 6.296875 -7.828125 C 6.816406 -7.617188 7.273438 -7.332031 7.671875 -6.96875 L 7.109375 -6.25 C 6.453125 -6.9375 5.65625 -7.28125 4.71875 -7.28125 C 3.789062 -7.28125 3.003906 -6.96875 2.359375 -6.34375 C 1.722656 -5.71875 1.40625 -4.957031 1.40625 -4.0625 C 1.40625 -3.175781 1.726562 -2.421875 2.375 -1.796875 C 3.019531 -1.179688 3.796875 -0.875 4.703125 -0.875 C 5.617188 -0.875 6.421875 -1.195312 7.109375 -1.84375 L 7.6875 -1.203125 C 6.789062 -0.367188 5.785156 0.046875 4.671875 0.046875 C 3.492188 0.046875 2.5 -0.347656 1.6875 -1.140625 C 0.875 -1.941406 0.46875 -2.921875 0.46875 -4.078125 C 0.46875 -5.210938 0.878906 -6.175781 1.703125 -6.96875 C 2.523438 -7.757812 3.523438 -8.15625 4.703125 -8.15625 Z M 4.703125 -8.15625 "/></g></g></g><g fill="#000000" fill-opacity="1"><g transform="translate(40.365697, 128.842466)"><g><path d="M 1.359375 -5.28125 C 1.941406 -5.851562 2.6875 -6.140625 3.59375 -6.140625 C 4.5 -6.140625 5.238281 -5.851562 5.8125 -5.28125 C 6.394531 -4.707031 6.6875 -3.96875 6.6875 -3.0625 C 6.6875 -2.144531 6.394531 -1.398438 5.8125 -0.828125 C 5.238281 -0.253906 4.5 0.03125 3.59375 0.03125 C 2.6875 0.03125 1.941406 -0.253906 1.359375 -0.828125 C 0.773438 -1.398438 0.484375 -2.144531 0.484375 -3.0625 C 0.484375 -3.96875 0.773438 -4.707031 1.359375 -5.28125 Z M 5.15625 -4.671875 C 4.75 -5.097656 4.222656 -5.3125 3.578125 -5.3125 C 2.941406 -5.3125 2.414062 -5.097656 2 -4.671875 C 1.59375 -4.253906 1.390625 -3.710938 1.390625 -3.046875 C 1.390625 -2.378906 1.59375 -1.832031 2 -1.40625 C 2.414062 -0.988281 2.941406 -0.78125 3.578125 -0.78125 C 4.222656 -0.78125 4.75 -0.988281 5.15625 -1.40625 C 5.570312 -1.832031 5.78125 -2.378906 5.78125 -3.046875 C 5.78125 -3.710938 5.570312 -4.253906 5.15625 -4.671875 Z M 5.15625 -4.671875 "/></g></g></g><g fill="#000000" fill-opacity="1"><g transform="translate(49.857785, 128.842466)"><g><path d="M 8.9375 -6.15625 C 9.644531 -6.15625 10.203125 -5.941406 10.609375 -5.515625 C 11.015625 -5.097656 11.21875 -4.515625 11.21875 -3.765625 L 11.21875 0 L 10.3125 0 L 10.3125 -3.53125 C 10.3125 -4.070312 10.160156 -4.492188 9.859375 -4.796875 C 9.554688 -5.109375 9.140625 -5.265625 8.609375 -5.265625 C 7.984375 -5.242188 7.492188 -5.023438 7.140625 -4.609375 C 6.796875 -4.203125 6.625 -3.664062 6.625 -3 L 6.625 0 L 5.703125 0 L 5.703125 -3.53125 C 5.703125 -4.070312 5.550781 -4.492188 5.25 -4.796875 C 4.957031 -5.109375 4.539062 -5.265625 4 -5.265625 C 3.382812 -5.242188 2.894531 -5.023438 2.53125 -4.609375 C 2.175781 -4.203125 2 -3.664062 2 -3 L 2 0 L 1.109375 0 L 1.109375 -6.125 L 2 -6.125 L 2 -4.734375 C 2.394531 -5.660156 3.171875 -6.132812 4.328125 -6.15625 C 4.898438 -6.15625 5.375 -6.015625 5.75 -5.734375 C 6.132812 -5.453125 6.394531 -5.054688 6.53125 -4.546875 C 6.894531 -5.597656 7.695312 -6.132812 8.9375 -6.15625 Z M 8.9375 -6.15625 "/></g></g></g><g fill="#000000" fill-opacity="1"><g transform="translate(64.292163, 128.842466)"><g><path d="M 4.421875 -6.15625 C 5.285156 -6.15625 5.988281 -5.863281 6.53125 -5.28125 C 7.082031 -4.695312 7.359375 -3.953125 7.359375 -3.046875 C 7.359375 -2.140625 7.085938 -1.398438 6.546875 -0.828125 C 6.015625 -0.253906 5.316406 0.03125 4.453125 0.03125 C 3.335938 0.03125 2.539062 -0.414062 2.0625 -1.3125 L 2.0625 2.25 L 1.15625 2.25 L 1.15625 -6.125 L 2.0625 -6.125 L 2.0625 -4.796875 C 2.539062 -5.703125 3.328125 -6.15625 4.421875 -6.15625 Z M 4.265625 -0.796875 C 4.898438 -0.796875 5.421875 -1.003906 5.828125 -1.421875 C 6.234375 -1.847656 6.4375 -2.394531 6.4375 -3.0625 C 6.4375 -3.71875 6.234375 -4.257812 5.828125 -4.6875 C 5.421875 -5.125 4.898438 -5.34375 4.265625 -5.34375 C 3.617188 -5.34375 3.085938 -5.128906 2.671875 -4.703125 C 2.265625 -4.273438 2.0625 -3.726562 2.0625 -3.0625 C 2.0625 -2.394531 2.265625 -1.847656 2.671875 -1.421875 C 3.085938 -1.003906 3.617188 -0.796875 4.265625 -0.796875 Z M 4.265625 -0.796875 "/></g></g></g><g fill="#000000" fill-opacity="1"><g transform="translate(74.457153, 128.842466)"><g><path d="M 6.40625 -6.125 L 6.40625 0 L 5.5 0 L 5.5 -1.375 C 5.101562 -0.445312 4.332031 0.0195312 3.1875 0.03125 C 2.46875 0.03125 1.90625 -0.179688 1.5 -0.609375 C 1.09375 -1.035156 0.890625 -1.613281 0.890625 -2.34375 L 0.890625 -6.125 L 1.796875 -6.125 L 1.796875 -2.59375 C 1.796875 -2.050781 1.945312 -1.628906 2.25 -1.328125 C 2.550781 -1.023438 2.96875 -0.875 3.5 -0.875 C 4.125 -0.875 4.613281 -1.082031 4.96875 -1.5 C 5.320312 -1.914062 5.5 -2.453125 5.5 -3.109375 L 5.5 -6.125 Z M 6.40625 -6.125 "/></g></g></g><g fill="#000000" fill-opacity="1"><g transform="translate(84.285688, 128.842466)"><g><path d="M 4 -1.15625 L 4.265625 -0.421875 C 3.816406 -0.117188 3.351562 0.0351562 2.875 0.046875 C 2.40625 0.046875 2.03125 -0.0976562 1.75 -0.390625 C 1.46875 -0.679688 1.328125 -1.113281 1.328125 -1.6875 L 1.328125 -5.1875 L 0.4375 -5.1875 L 0.4375 -5.921875 L 1.328125 -5.921875 L 1.328125 -7.53125 L 2.21875 -7.53125 L 2.21875 -5.921875 L 4.15625 -5.9375 L 4.15625 -5.1875 L 2.21875 -5.1875 L 2.21875 -1.859375 C 2.21875 -1.171875 2.488281 -0.828125 3.03125 -0.828125 C 3.34375 -0.828125 3.664062 -0.9375 4 -1.15625 Z M 4 -1.15625 "/></g></g></g><g fill="#000000" fill-opacity="1"><g transform="translate(91.132613, 128.842466)"><g><path d="M 3.515625 -6.140625 C 4.484375 -6.148438 5.210938 -5.84375 5.703125 -5.21875 C 6.191406 -4.601562 6.414062 -3.765625 6.375 -2.703125 L 1.375 -2.703125 C 1.457031 -2.109375 1.695312 -1.632812 2.09375 -1.28125 C 2.5 -0.925781 3 -0.75 3.59375 -0.75 C 4.375 -0.75 5.003906 -1.003906 5.484375 -1.515625 L 5.984375 -0.984375 C 5.378906 -0.304688 4.5625 0.03125 3.53125 0.03125 C 2.632812 0.03125 1.898438 -0.253906 1.328125 -0.828125 C 0.765625 -1.398438 0.484375 -2.140625 0.484375 -3.046875 C 0.484375 -3.960938 0.765625 -4.707031 1.328125 -5.28125 C 1.898438 -5.851562 2.628906 -6.140625 3.515625 -6.140625 Z M 1.375 -3.453125 L 5.5625 -3.453125 C 5.53125 -4.035156 5.328125 -4.5 4.953125 -4.84375 C 4.585938 -5.1875 4.109375 -5.359375 3.515625 -5.359375 C 2.929688 -5.359375 2.445312 -5.179688 2.0625 -4.828125 C 1.675781 -4.484375 1.445312 -4.023438 1.375 -3.453125 Z M 1.375 -3.453125 "/></g></g></g><g fill="#000000" fill-opacity="1"><g transform="translate(100.276654, 128.842466)"><g><path d="M 2.015625 -6.125 L 2.015625 -4.765625 C 2.429688 -5.671875 3.160156 -6.132812 4.203125 -6.15625 L 4.203125 -5.234375 C 3.566406 -5.242188 3.054688 -5.066406 2.671875 -4.703125 C 2.285156 -4.347656 2.066406 -3.863281 2.015625 -3.25 L 2.015625 0 L 1.109375 0 L 1.109375 -6.125 Z M 2.015625 -6.125 "/></g></g></g><g fill="#000000" fill-opacity="1"><g transform="translate(106.914747, 128.842466)"><g/></g></g><g fill="#000000" fill-opacity="1"><g transform="translate(112.415882, 128.842466)"><g><path d="M 3.515625 -6.140625 C 4.484375 -6.148438 5.210938 -5.84375 5.703125 -5.21875 C 6.191406 -4.601562 6.414062 -3.765625 6.375 -2.703125 L 1.375 -2.703125 C 1.457031 -2.109375 1.695312 -1.632812 2.09375 -1.28125 C 2.5 -0.925781 3 -0.75 3.59375 -0.75 C 4.375 -0.75 5.003906 -1.003906 5.484375 -1.515625 L 5.984375 -0.984375 C 5.378906 -0.304688 4.5625 0.03125 3.53125 0.03125 C 2.632812 0.03125 1.898438 -0.253906 1.328125 -0.828125 C 0.765625 -1.398438 0.484375 -2.140625 0.484375 -3.046875 C 0.484375 -3.960938 0.765625 -4.707031 1.328125 -5.28125 C 1.898438 -5.851562 2.628906 -6.140625 3.515625 -6.140625 Z M 1.375 -3.453125 L 5.5625 -3.453125 C 5.53125 -4.035156 5.328125 -4.5 4.953125 -4.84375 C 4.585938 -5.1875 4.109375 -5.359375 3.515625 -5.359375 C 2.929688 -5.359375 2.445312 -5.179688 2.0625 -4.828125 C 1.675781 -4.484375 1.445312 -4.023438 1.375 -3.453125 Z M 1.375 -3.453125 "/></g></g></g><g fill="#000000" fill-opacity="1"><g transform="translate(121.559922, 128.842466)"><g><path d="M 4.375 -6.15625 C 5.101562 -6.15625 5.671875 -5.941406 6.078125 -5.515625 C 6.492188 -5.097656 6.703125 -4.515625 6.703125 -3.765625 L 6.703125 0 L 5.796875 0 L 5.796875 -3.53125 C 5.796875 -4.070312 5.640625 -4.492188 5.328125 -4.796875 C 5.023438 -5.097656 4.601562 -5.25 4.0625 -5.25 C 3.46875 -5.238281 2.988281 -5.054688 2.625 -4.703125 C 2.269531 -4.347656 2.066406 -3.875 2.015625 -3.28125 L 2.015625 0 L 1.109375 0 L 1.109375 -6.125 L 2.015625 -6.125 L 2.015625 -4.765625 C 2.429688 -5.671875 3.21875 -6.132812 4.375 -6.15625 Z M 4.375 -6.15625 "/></g></g></g><g fill="#000000" fill-opacity="1"><g transform="translate(131.492873, 128.842466)"><g><path d="M 6.4375 -6.125 L 6.4375 -0.640625 C 6.4375 0.253906 6.15625 0.960938 5.59375 1.484375 C 5.03125 2.015625 4.285156 2.28125 3.359375 2.28125 C 2.453125 2.269531 1.613281 1.972656 0.84375 1.390625 L 1.265625 0.703125 C 1.878906 1.210938 2.5625 1.46875 3.3125 1.46875 C 3.976562 1.46875 4.515625 1.28125 4.921875 0.90625 C 5.328125 0.53125 5.53125 0.0234375 5.53125 -0.609375 L 5.53125 -1.546875 C 5.082031 -0.691406 4.332031 -0.265625 3.28125 -0.265625 C 2.457031 -0.265625 1.785156 -0.539062 1.265625 -1.09375 C 0.742188 -1.644531 0.484375 -2.359375 0.484375 -3.234375 C 0.484375 -4.078125 0.738281 -4.769531 1.25 -5.3125 C 1.757812 -5.863281 2.425781 -6.144531 3.25 -6.15625 C 4.300781 -6.15625 5.0625 -5.726562 5.53125 -4.875 L 5.53125 -6.125 Z M 1.921875 -1.640625 C 2.316406 -1.234375 2.820312 -1.03125 3.4375 -1.03125 C 4.050781 -1.03125 4.550781 -1.234375 4.9375 -1.640625 C 5.332031 -2.046875 5.53125 -2.5625 5.53125 -3.1875 C 5.53125 -3.820312 5.332031 -4.34375 4.9375 -4.75 C 4.550781 -5.15625 4.050781 -5.359375 3.4375 -5.359375 C 2.820312 -5.359375 2.316406 -5.15625 1.921875 -4.75 C 1.535156 -4.34375 1.335938 -3.820312 1.328125 -3.1875 C 1.335938 -2.5625 1.535156 -2.046875 1.921875 -1.640625 Z M 1.921875 -1.640625 "/></g></g></g><g fill="#000000" fill-opacity="1"><g transform="translate(141.193788, 128.842466)"><g><path d="M 1.109375 -8.3125 C 1.222656 -8.4375 1.363281 -8.5 1.53125 -8.5 C 1.707031 -8.5 1.851562 -8.4375 1.96875 -8.3125 C 2.082031 -8.195312 2.140625 -8.050781 2.140625 -7.875 C 2.140625 -7.695312 2.082031 -7.546875 1.96875 -7.421875 C 1.851562 -7.304688 1.707031 -7.25 1.53125 -7.25 C 1.363281 -7.25 1.222656 -7.304688 1.109375 -7.421875 C 1.003906 -7.546875 0.953125 -7.695312 0.953125 -7.875 C 0.953125 -8.050781 1.003906 -8.195312 1.109375 -8.3125 Z M 2 0 L 1.109375 0 L 1.109375 -6.125 L 2 -6.125 Z M 2 0 "/></g></g></g><g fill="#000000" fill-opacity="1"><g transform="translate(146.613698, 128.842466)"><g><path d="M 4.375 -6.15625 C 5.101562 -6.15625 5.671875 -5.941406 6.078125 -5.515625 C 6.492188 -5.097656 6.703125 -4.515625 6.703125 -3.765625 L 6.703125 0 L 5.796875 0 L 5.796875 -3.53125 C 5.796875 -4.070312 5.640625 -4.492188 5.328125 -4.796875 C 5.023438 -5.097656 4.601562 -5.25 4.0625 -5.25 C 3.46875 -5.238281 2.988281 -5.054688 2.625 -4.703125 C 2.269531 -4.347656 2.066406 -3.875 2.015625 -3.28125 L 2.015625 0 L 1.109375 0 L 1.109375 -6.125 L 2.015625 -6.125 L 2.015625 -4.765625 C 2.429688 -5.671875 3.21875 -6.132812 4.375 -6.15625 Z M 4.375 -6.15625 "/></g></g></g><g fill="#000000" fill-opacity="1"><g transform="translate(156.546643, 128.842466)"><g><path d="M 3.515625 -6.140625 C 4.484375 -6.148438 5.210938 -5.84375 5.703125 -5.21875 C 6.191406 -4.601562 6.414062 -3.765625 6.375 -2.703125 L 1.375 -2.703125 C 1.457031 -2.109375 1.695312 -1.632812 2.09375 -1.28125 C 2.5 -0.925781 3 -0.75 3.59375 -0.75 C 4.375 -0.75 5.003906 -1.003906 5.484375 -1.515625 L 5.984375 -0.984375 C 5.378906 -0.304688 4.5625 0.03125 3.53125 0.03125 C 2.632812 0.03125 1.898438 -0.253906 1.328125 -0.828125 C 0.765625 -1.398438 0.484375 -2.140625 0.484375 -3.046875 C 0.484375 -3.960938 0.765625 -4.707031 1.328125 -5.28125 C 1.898438 -5.851562 2.628906 -6.140625 3.515625 -6.140625 Z M 1.375 -3.453125 L 5.5625 -3.453125 C 5.53125 -4.035156 5.328125 -4.5 4.953125 -4.84375 C 4.585938 -5.1875 4.109375 -5.359375 3.515625 -5.359375 C 2.929688 -5.359375 2.445312 -5.179688 2.0625 -4.828125 C 1.675781 -4.484375 1.445312 -4.023438 1.375 -3.453125 Z M 1.375 -3.453125 "/></g></g></g><g fill="#000000" fill-opacity="1"><g transform="translate(165.690678, 128.842466)"><g><path d="M 3.515625 -6.140625 C 4.484375 -6.148438 5.210938 -5.84375 5.703125 -5.21875 C 6.191406 -4.601562 6.414062 -3.765625 6.375 -2.703125 L 1.375 -2.703125 C 1.457031 -2.109375 1.695312 -1.632812 2.09375 -1.28125 C 2.5 -0.925781 3 -0.75 3.59375 -0.75 C 4.375 -0.75 5.003906 -1.003906 5.484375 -1.515625 L 5.984375 -0.984375 C 5.378906 -0.304688 4.5625 0.03125 3.53125 0.03125 C 2.632812 0.03125 1.898438 -0.253906 1.328125 -0.828125 C 0.765625 -1.398438 0.484375 -2.140625 0.484375 -3.046875 C 0.484375 -3.960938 0.765625 -4.707031 1.328125 -5.28125 C 1.898438 -5.851562 2.628906 -6.140625 3.515625 -6.140625 Z M 1.375 -3.453125 L 5.5625 -3.453125 C 5.53125 -4.035156 5.328125 -4.5 4.953125 -4.84375 C 4.585938 -5.1875 4.109375 -5.359375 3.515625 -5.359375 C 2.929688 -5.359375 2.445312 -5.179688 2.0625 -4.828125 C 1.675781 -4.484375 1.445312 -4.023438 1.375 -3.453125 Z M 1.375 -3.453125 "/></g></g></g><g fill="#000000" fill-opacity="1"><g transform="translate(174.834713, 128.842466)"><g><path d="M 2.015625 -6.125 L 2.015625 -4.765625 C 2.429688 -5.671875 3.160156 -6.132812 4.203125 -6.15625 L 4.203125 -5.234375 C 3.566406 -5.242188 3.054688 -5.066406 2.671875 -4.703125 C 2.285156 -4.347656 2.066406 -3.863281 2.015625 -3.25 L 2.015625 0 L 1.109375 0 L 1.109375 -6.125 Z M 2.015625 -6.125 "/></g></g></g><g fill="#000000" fill-opacity="1"><g transform="translate(181.472801, 128.842466)"><g><path d="M 1.109375 -8.3125 C 1.222656 -8.4375 1.363281 -8.5 1.53125 -8.5 C 1.707031 -8.5 1.851562 -8.4375 1.96875 -8.3125 C 2.082031 -8.195312 2.140625 -8.050781 2.140625 -7.875 C 2.140625 -7.695312 2.082031 -7.546875 1.96875 -7.421875 C 1.851562 -7.304688 1.707031 -7.25 1.53125 -7.25 C 1.363281 -7.25 1.222656 -7.304688 1.109375 -7.421875 C 1.003906 -7.546875 0.953125 -7.695312 0.953125 -7.875 C 0.953125 -8.050781 1.003906 -8.195312 1.109375 -8.3125 Z M 2 0 L 1.109375 0 L 1.109375 -6.125 L 2 -6.125 Z M 2 0 "/></g></g></g><g fill="#000000" fill-opacity="1"><g transform="translate(186.892711, 128.842466)"><g><path d="M 4.375 -6.15625 C 5.101562 -6.15625 5.671875 -5.941406 6.078125 -5.515625 C 6.492188 -5.097656 6.703125 -4.515625 6.703125 -3.765625 L 6.703125 0 L 5.796875 0 L 5.796875 -3.53125 C 5.796875 -4.070312 5.640625 -4.492188 5.328125 -4.796875 C 5.023438 -5.097656 4.601562 -5.25 4.0625 -5.25 C 3.46875 -5.238281 2.988281 -5.054688 2.625 -4.703125 C 2.269531 -4.347656 2.066406 -3.875 2.015625 -3.28125 L 2.015625 0 L 1.109375 0 L 1.109375 -6.125 L 2.015625 -6.125 L 2.015625 -4.765625 C 2.429688 -5.671875 3.21875 -6.132812 4.375 -6.15625 Z M 4.375 -6.15625 "/></g></g></g><g fill="#000000" fill-opacity="1"><g transform="translate(196.825655, 128.842466)"><g><path d="M 6.4375 -6.125 L 6.4375 -0.640625 C 6.4375 0.253906 6.15625 0.960938 5.59375 1.484375 C 5.03125 2.015625 4.285156 2.28125 3.359375 2.28125 C 2.453125 2.269531 1.613281 1.972656 0.84375 1.390625 L 1.265625 0.703125 C 1.878906 1.210938 2.5625 1.46875 3.3125 1.46875 C 3.976562 1.46875 4.515625 1.28125 4.921875 0.90625 C 5.328125 0.53125 5.53125 0.0234375 5.53125 -0.609375 L 5.53125 -1.546875 C 5.082031 -0.691406 4.332031 -0.265625 3.28125 -0.265625 C 2.457031 -0.265625 1.785156 -0.539062 1.265625 -1.09375 C 0.742188 -1.644531 0.484375 -2.359375 0.484375 -3.234375 C 0.484375 -4.078125 0.738281 -4.769531 1.25 -5.3125 C 1.757812 -5.863281 2.425781 -6.144531 3.25 -6.15625 C 4.300781 -6.15625 5.0625 -5.726562 5.53125 -4.875 L 5.53125 -6.125 Z M 1.921875 -1.640625 C 2.316406 -1.234375 2.820312 -1.03125 3.4375 -1.03125 C 4.050781 -1.03125 4.550781 -1.234375 4.9375 -1.640625 C 5.332031 -2.046875 5.53125 -2.5625 5.53125 -3.1875 C 5.53125 -3.820312 5.332031 -4.34375 4.9375 -4.75 C 4.550781 -5.15625 4.050781 -5.359375 3.4375 -5.359375 C 2.820312 -5.359375 2.316406 -5.15625 1.921875 -4.75 C 1.535156 -4.34375 1.335938 -3.820312 1.328125 -3.1875 C 1.335938 -2.5625 1.535156 -2.046875 1.921875 -1.640625 Z M 1.921875 -1.640625 "/></g></g></g><g fill="#000000" fill-opacity="1"><g transform="translate(206.526571, 128.842466)"><g/></g></g><g fill="#000000" fill-opacity="1"><g transform="translate(212.0277, 128.842466)"><g><path d="M 2.734375 -6.15625 C 3.484375 -6.15625 4.128906 -5.96875 4.671875 -5.59375 L 4.328125 -4.875 C 3.804688 -5.207031 3.253906 -5.375 2.671875 -5.375 C 2.304688 -5.375 2.015625 -5.304688 1.796875 -5.171875 C 1.578125 -5.035156 1.46875 -4.832031 1.46875 -4.5625 C 1.46875 -4.3125 1.582031 -4.109375 1.8125 -3.953125 C 2.050781 -3.804688 2.335938 -3.6875 2.671875 -3.59375 C 3.003906 -3.5 3.335938 -3.390625 3.671875 -3.265625 C 4.003906 -3.148438 4.285156 -2.960938 4.515625 -2.703125 C 4.753906 -2.441406 4.875 -2.109375 4.875 -1.703125 C 4.875 -1.128906 4.660156 -0.695312 4.234375 -0.40625 C 3.804688 -0.113281 3.273438 0.03125 2.640625 0.03125 C 1.671875 0.03125 0.890625 -0.253906 0.296875 -0.828125 L 0.640625 -1.515625 C 0.890625 -1.273438 1.195312 -1.082031 1.5625 -0.9375 C 1.9375 -0.800781 2.304688 -0.734375 2.671875 -0.734375 C 3.046875 -0.734375 3.351562 -0.804688 3.59375 -0.953125 C 3.84375 -1.097656 3.972656 -1.316406 3.984375 -1.609375 C 3.992188 -1.878906 3.878906 -2.09375 3.640625 -2.25 C 3.410156 -2.414062 3.128906 -2.546875 2.796875 -2.640625 C 2.460938 -2.734375 2.128906 -2.835938 1.796875 -2.953125 C 1.460938 -3.066406 1.179688 -3.25 0.953125 -3.5 C 0.722656 -3.757812 0.609375 -4.09375 0.609375 -4.5 C 0.609375 -5.039062 0.8125 -5.453125 1.21875 -5.734375 C 1.625 -6.015625 2.128906 -6.15625 2.734375 -6.15625 Z M 2.734375 -6.15625 "/></g></g></g><g fill="#000000" fill-opacity="1"><g transform="translate(219.605519, 128.842466)"><g><path d="M 4 -1.15625 L 4.265625 -0.421875 C 3.816406 -0.117188 3.351562 0.0351562 2.875 0.046875 C 2.40625 0.046875 2.03125 -0.0976562 1.75 -0.390625 C 1.46875 -0.679688 1.328125 -1.113281 1.328125 -1.6875 L 1.328125 -5.1875 L 0.4375 -5.1875 L 0.4375 -5.921875 L 1.328125 -5.921875 L 1.328125 -7.53125 L 2.21875 -7.53125 L 2.21875 -5.921875 L 4.15625 -5.9375 L 4.15625 -5.1875 L 2.21875 -5.1875 L 2.21875 -1.859375 C 2.21875 -1.171875 2.488281 -0.828125 3.03125 -0.828125 C 3.34375 -0.828125 3.664062 -0.9375 4 -1.15625 Z M 4 -1.15625 "/></g></g></g><g fill="#000000" fill-opacity="1"><g transform="translate(226.45245, 128.842466)"><g><path d="M 6.40625 -6.125 L 6.40625 0 L 5.5 0 L 5.5 -1.375 C 5.101562 -0.445312 4.332031 0.0195312 3.1875 0.03125 C 2.46875 0.03125 1.90625 -0.179688 1.5 -0.609375 C 1.09375 -1.035156 0.890625 -1.613281 0.890625 -2.34375 L 0.890625 -6.125 L 1.796875 -6.125 L 1.796875 -2.59375 C 1.796875 -2.050781 1.945312 -1.628906 2.25 -1.328125 C 2.550781 -1.023438 2.96875 -0.875 3.5 -0.875 C 4.125 -0.875 4.613281 -1.082031 4.96875 -1.5 C 5.320312 -1.914062 5.5 -2.453125 5.5 -3.109375 L 5.5 -6.125 Z M 6.40625 -6.125 "/></g></g></g><g fill="#000000" fill-opacity="1"><g transform="translate(236.280979, 128.842466)"><g><path d="M 6.71875 -8.609375 L 6.71875 0 L 5.8125 0 L 5.8125 -1.3125 C 5.332031 -0.40625 4.539062 0.046875 3.4375 0.046875 C 2.570312 0.046875 1.863281 -0.238281 1.3125 -0.8125 C 0.757812 -1.394531 0.484375 -2.144531 0.484375 -3.0625 C 0.484375 -3.976562 0.753906 -4.722656 1.296875 -5.296875 C 1.847656 -5.878906 2.554688 -6.171875 3.421875 -6.171875 C 3.960938 -6.171875 4.441406 -6.050781 4.859375 -5.8125 C 5.273438 -5.570312 5.59375 -5.234375 5.8125 -4.796875 L 5.8125 -8.609375 Z M 3.609375 -0.765625 C 4.253906 -0.765625 4.78125 -0.976562 5.1875 -1.40625 C 5.601562 -1.832031 5.8125 -2.378906 5.8125 -3.046875 C 5.8125 -3.710938 5.601562 -4.257812 5.1875 -4.6875 C 4.78125 -5.125 4.253906 -5.34375 3.609375 -5.34375 C 2.960938 -5.34375 2.429688 -5.125 2.015625 -4.6875 C 1.597656 -4.257812 1.390625 -3.710938 1.390625 -3.046875 C 1.390625 -2.378906 1.597656 -1.832031 2.015625 -1.40625 C 2.429688 -0.976562 2.960938 -0.765625 3.609375 -0.765625 Z M 3.609375 -0.765625 "/></g></g></g><g fill="#000000" fill-opacity="1"><g transform="translate(246.480777, 128.842466)"><g><path d="M 3.515625 -6.140625 C 4.484375 -6.148438 5.210938 -5.84375 5.703125 -5.21875 C 6.191406 -4.601562 6.414062 -3.765625 6.375 -2.703125 L 1.375 -2.703125 C 1.457031 -2.109375 1.695312 -1.632812 2.09375 -1.28125 C 2.5 -0.925781 3 -0.75 3.59375 -0.75 C 4.375 -0.75 5.003906 -1.003906 5.484375 -1.515625 L 5.984375 -0.984375 C 5.378906 -0.304688 4.5625 0.03125 3.53125 0.03125 C 2.632812 0.03125 1.898438 -0.253906 1.328125 -0.828125 C 0.765625 -1.398438 0.484375 -2.140625 0.484375 -3.046875 C 0.484375 -3.960938 0.765625 -4.707031 1.328125 -5.28125 C 1.898438 -5.851562 2.628906 -6.140625 3.515625 -6.140625 Z M 1.375 -3.453125 L 5.5625 -3.453125 C 5.53125 -4.035156 5.328125 -4.5 4.953125 -4.84375 C 4.585938 -5.1875 4.109375 -5.359375 3.515625 -5.359375 C 2.929688 -5.359375 2.445312 -5.179688 2.0625 -4.828125 C 1.675781 -4.484375 1.445312 -4.023438 1.375 -3.453125 Z M 1.375 -3.453125 "/></g></g></g><g fill="#000000" fill-opacity="1"><g transform="translate(255.624812, 128.842466)"><g><path d="M 4.375 -6.15625 C 5.101562 -6.15625 5.671875 -5.941406 6.078125 -5.515625 C 6.492188 -5.097656 6.703125 -4.515625 6.703125 -3.765625 L 6.703125 0 L 5.796875 0 L 5.796875 -3.53125 C 5.796875 -4.070312 5.640625 -4.492188 5.328125 -4.796875 C 5.023438 -5.097656 4.601562 -5.25 4.0625 -5.25 C 3.46875 -5.238281 2.988281 -5.054688 2.625 -4.703125 C 2.269531 -4.347656 2.066406 -3.875 2.015625 -3.28125 L 2.015625 0 L 1.109375 0 L 1.109375 -6.125 L 2.015625 -6.125 L 2.015625 -4.765625 C 2.429688 -5.671875 3.21875 -6.132812 4.375 -6.15625 Z M 4.375 -6.15625 "/></g></g></g><g fill="#000000" fill-opacity="1"><g transform="translate(265.557757, 128.842466)"><g><path d="M 4 -1.15625 L 4.265625 -0.421875 C 3.816406 -0.117188 3.351562 0.0351562 2.875 0.046875 C 2.40625 0.046875 2.03125 -0.0976562 1.75 -0.390625 C 1.46875 -0.679688 1.328125 -1.113281 1.328125 -1.6875 L 1.328125 -5.1875 L 0.4375 -5.1875 L 0.4375 -5.921875 L 1.328125 -5.921875 L 1.328125 -7.53125 L 2.21875 -7.53125 L 2.21875 -5.921875 L 4.15625 -5.9375 L 4.15625 -5.1875 L 2.21875 -5.1875 L 2.21875 -1.859375 C 2.21875 -1.171875 2.488281 -0.828125 3.03125 -0.828125 C 3.34375 -0.828125 3.664062 -0.9375 4 -1.15625 Z M 4 -1.15625 "/></g></g></g></svg>